<?xml version="1.0" encoding="UTF-8" standalone="no"?>
<svg id="Layer_1" height="188.51366" viewBox="0 0 533.99998 188.51367" width="534" xmlns="http://www.w3.org/2000/svg">
   <g id="g18" transform="matrix(.70770463 0 0 .70770463 2 2)">
      <path id="path4" d="m135 20.7c0 0 47.7 32.1 83.7 58.3 20.3-.6 34.1.3 34.1.3-26.3-19.4-56.1-42.2-111.4-79.3-79.6 14.8-128.8 51.1-128.8 51.1 4.8 2.8 9.3 5.6 13.5 8.4 22.3-12.5 61.5-31.1 108.9-38.8" fill="#93c16d"/>
      <path id="path6" d="m40.8 69.9c-4.4-3.4-9.3-6.9-14.6-10.4-12.7 7.2-19.9 12.3-19.9 12.3 4.5 3.3 8.7 6.4 12.6 9.5 6.1-3.4 13.5-7.3 21.9-11.4" fill="#31a475"/>
      <path id="path8" d="m218.7 79c-9.7.3-20.9 1-32.8 2.3 8.8 6.2 17.8 12.6 26.1 18.6 20.4-.8 34.5.1 34.5.1-7.1-5.8-16.9-13.1-27.8-21" fill="#31a475"/>
      <path id="path10" d="m128.7 41.4c0 0 28 19.3 57.2 39.9 11.9-1.3 23.1-2 32.8-2.3-36-26.2-83.7-58.3-83.7-58.3-47.4 7.7-86.6 26.3-108.8 38.8 5.3 3.5 10.2 7 14.6 10.4 24.2-11.7 56.3-24.4 87.9-28.5" fill="#5aa427"/>
      <path id="path12" d="m73.1 149.3c0 0 .7-25-54.2-68.1-11.8 6.6-18.9 11.3-18.9 11.3 62.4 51.8 63.8 87.3 63.8 87.3 38.6-60.8 176.4-59.1 176.4-59.1-7.1-5.5-17.1-12.8-28.2-20.8-41.2 1.7-108.3 10.7-138.9 49.4" fill="#004d2a"/>
      <path id="path14" d="m82.7 117.8c0 0-8.2-21.8-42-47.9-8.3 4-15.7 7.9-21.8 11.3 54.9 43.1 54.2 68.1 54.2 68.1 30.6-38.8 97.7-47.7 138.9-49.4-8.3-6-17.3-12.4-26.1-18.6-35.5 3.9-77.1 13.6-103.2 36.5" fill="#009156"/>
      <path id="path16" d="m40.8 69.9c33.8 26.1 42 47.9 42 47.9 26-22.9 67.6-32.6 103.2-36.5-29.2-20.6-57.2-39.9-57.2-39.9-31.7 4.1-63.8 16.8-88 28.5" fill="#529527"/>
   </g>
   <g id="g30" fill="#3e3e3e" transform="matrix(.70770463 0 0 .70770463 2 2)">
      <path id="path20" d="m164.8 177.1c-17.9 0-26.5 15.9-26.3 32.2-.2 16.4 8.9 30.1 26.3 30.1 14.1 0 23.4-7.6 25.7-21.5h-4.4c-2.1 11-10.1 17.7-21.3 17.7-14.7 0-22.1-12.7-21.9-26.7h48c .9-17.1-7.4-31.8-26.1-31.8zm-21.8 27.9c.9-11.8 8.7-24.1 21.9-24.1 13.7 0 21.5 11.6 21.8 24.1z"/>
      <path id="path22" d="m222.9 177.1c-9.3 0-18.3 5.2-21.3 14.1h-.2v-12.7h-4.4v59.5h4.4v-32.2c0-14.6 8.1-24.9 21.4-24.9 16.2 0 16.9 13.3 16.9 19.4v37.7h4.4v-36.8c0-7.3-.3-24.1-21.2-24.1z"/>
      <path id="path24" d="m296.3 190.9h-.2c-3.2-8.9-12.3-13.8-21.5-13.8-16.8 0-25.7 13.5-25.7 29.3 0 16.5 8.2 29.4 25.7 29.4 10.1 0 17.4-4.7 21.5-13.5h.2v13.7c0 3.9-.3 20.9-21.2 20.9-9.7 0-18.1-4.2-19-14.7h-4.4c.7 13.8 10.5 18.5 23.3 18.5 25.7.8 25.7-21.2 25.7-25.8v-56.4h-4.4zm-21.7 41.1c-14 0-21.3-11.6-21.3-25.6 0-12.6 6.9-25.5 21.3-25.5 14.6 0 21.6 12.2 21.6 25.5 0 13.4-7.2 25.6-21.6 25.6z"/>
      <path id="path26" d="m336.9 182.6v-4.4c-10.8-.5-20.5 5.8-22.8 13.5h-.3v-13.2h-4.4v59.5h4.4v-32.5c.5-8.9 2.3-12.6 6.7-17.1 5.3-5.3 11.8-6.4 16.4-5.8z"/>
      <path id="path28" d="m360.6 177.1c-17.5 0-27.3 14.2-27.3 31.1 0 16.9 9.8 31.1 27.3 31.1 17.5 0 27.3-14.2 27.3-31.1 0-16.8-9.9-31.1-27.3-31.1zm0 58.5c-14.9 0-22.9-13.1-22.9-27.3 0-14.2 8-27.3 22.9-27.3 14.9 0 22.9 13.1 22.9 27.3 0 14.2-8 27.3-22.9 27.3z"/>
   </g>
   <g id="g44" fill="#818285" transform="matrix(.70770463 0 0 .70770463 2 2)">
      <path id="path32" d="m427.2 208.3c-.2 14.2 7.3 27 22.1 27 11.3 0 19.4-6.8 21.5-17.9h4.4c-2.3 14-11.7 21.8-26 21.8-17.5 0-26.8-13.8-26.6-30.4-.2-16.5 8.4-32.5 26.6-32.5 18.8 0 27.3 14.9 26.4 32.1h-48.4zm44.1-3.9c-.2-12.6-8.2-24.3-22-24.3-13.3 0-21.2 12.4-22.1 24.3z"/>
      <path id="path34" d="m486.2 177.6h4.4v12.9h.2c3-9 12.2-14.3 21.5-14.3 21.2 0 21.4 17 21.4 24.3v37.2h-4.4v-38c0-6.2-.7-19.7-17.1-19.7-13.5 0-21.6 10.4-21.6 25.2v32.5h-4.4z"/>
      <path id="path36" d="m548.6 208.3c-.2 14.2 7.3 27 22.1 27 11.3 0 19.4-6.8 21.5-17.9h4.4c-2.3 14-11.7 21.8-26 21.8-17.5 0-26.8-13.8-26.6-30.4-.2-16.5 8.4-32.5 26.6-32.5 18.8 0 27.3 14.9 26.4 32.1h-48.4zm44.1-3.9c-.2-12.6-8.2-24.3-22-24.3-13.3 0-21.2 12.4-22.1 24.3z"/>
      <path id="path38" d="m612 191h .4c2.3-7.8 12.2-14.2 23-13.7v4.4c-4.7-.6-11.2.6-16.6 5.8-4.4 4.6-6.3 8.3-6.8 17.3v32.9h-4.4v-60.1h4.4z"/>
      <path id="path40" d="m689.9 177.6v57c0 4.7 0 26.9-26 26.1-12.9 0-22.8-4.8-23.5-18.7h4.4c.9 10.6 9.4 14.9 19.2 14.9 21.1 0 21.4-17.2 21.4-21.2v-13.8h-.2c-4.2 8.9-11.6 13.7-21.8 13.7-17.7 0-26-13-26-29.7 0-15.9 9-29.6 26-29.6 9.4 0 18.5 4.9 21.8 13.9h.2v-12.5h4.5zm-48 28.2c0 14.2 7.4 25.9 21.5 25.9 14.6 0 21.9-12.3 21.9-25.9 0-13.5-7.1-25.7-21.9-25.7-14.5 0-21.5 13-21.5 25.7z"/>
      <path id="path42" d="m695.7 177.6h5.3l22.3 54.9 20.6-54.9h5l-25.7 66.6c-2.5 5.8-4.4 10.4-7 12.4-3.2 2.5-7.3 2.7-14 2.7v-3.9c6.3 0 9.5-.8 12.5-3.9 1.8-1.8 3.4-6.2 6.2-14.2z"/>
   </g>
</svg>
